<?xml version="1.0" encoding="iso-8859-1"?>
<!-- Generator: Adobe Illustrator 19.0.0, SVG Export Plug-In . SVG Version: 6.00 Build 0)  -->
<svg version="1.1" id="Layer_1" xmlns="http://www.w3.org/2000/svg" xmlns:xlink="http://www.w3.org/1999/xlink" x="0px" y="0px"
	 viewBox="0 0 496 496" style="enable-background:new 0 0 496 496;" xml:space="preserve">
<g>
	<path style="fill:#FFA64D;" d="M341.44,152h-32v112h32c22.056,0,40-17.944,40-40v-32C381.44,169.944,363.496,152,341.44,152z"/>
	<path style="fill:#FFA64D;" d="M69.44,152c-22.056,0-40,17.944-40,40v32c0,22.056,17.944,40,40,40h32V152H69.44z"/>
</g>
<g>
	<path style="fill:#3F3A34;" d="M61.808,152.768C65.608,76.736,128.48,16,205.44,16s139.832,60.736,143.632,136.768
		c6.088,1.184,11.6,3.824,16.368,7.432V160c0-88.224-71.776-160-160-160s-160,71.776-160,160h0.248
		C50.4,156.496,55.832,153.936,61.808,152.768z"/>
	<path style="fill:#3F3A34;" d="M349.048,363.904c0.208-1.28,0.392-2.568,0.392-3.904v-96.808c-2.584,0.528-5.264,0.808-8,0.808h-8
		v89.704c-9.496-5-19.832-8.536-30.696-10.208l-41.304-6.36v-8.288c33.416-19.4,56-55.496,56-96.848v-80h15.592
		C328.872,85.152,273.32,32,205.44,32S82.008,85.152,77.848,152H93.44v80c0,41.344,22.584,77.448,56,96.848v8.288l-41.304,6.352
		c-36.96,5.688-68.048,32.424-79.2,68.112L2.56,496h405.76l-26.376-84.392C375.984,392.512,364.272,376.024,349.048,363.904z
		 M205.44,48c59.056,0,107.464,45.976,111.592,104h-7.592c-16.688,0-31.688-9.272-39.16-24.192l-5.104-10.224l-6.992,3.104
		C211.44,141.464,161.8,152,110.648,152H93.84C97.976,93.976,146.384,48,205.44,48z M109.44,232v-64h1.208
		c50.888,0,100.344-9.992,147.128-29.696c9.344,16.096,25.4,26.744,43.664,29.168V232c0,52.936-43.064,96-96,96
		S109.44,284.936,109.44,232z M205.44,344c14.104,0,27.56-2.728,40-7.512v3.232l-40,26.664l-40-26.664v-3.232
		C177.88,341.272,191.336,344,205.44,344z M44.208,416.376c9.344-29.904,35.392-52.312,66.36-57.072l45.024-6.928l49.848,33.24
		l49.856-33.232l45.024,6.928c9.064,1.392,17.608,4.456,25.536,8.616c-0.152,0-0.272,0.072-0.416,0.072h-64
		c-13.232,0-24,10.768-24,24v8h-80c-13.232,0-24,10.768-24,24v16h-32v-16h-16v32h48c14.864,0,27.288,10.24,30.864,24H24.32
		L44.208,416.376z M261.44,442.8c-16.176,5.744-28.352,19.896-31.28,37.2h-49.44c-2.92-17.304-15.104-31.456-31.28-37.2V424
		c0-4.408,3.592-8,8-8h96c4.408,0,8,3.592,8,8V442.8z M246.576,480c3.576-13.76,16-24,30.864-24h48v-32h-16v16h-32v-16
		c0-13.232-10.768-24-24-24v-8c0-4.408,3.592-8,8-8h64c6.008,0,11.448-2.296,15.664-5.96c11.784,9.984,20.84,23.184,25.576,38.344
		L386.56,480H246.576z"/>
	<path style="fill:#3F3A34;" d="M173.44,196c0-11.024-8.976-20-20-20s-20,8.976-20,20s8.976,20,20,20S173.44,207.024,173.44,196z
		 M153.44,200c-2.208,0-4-1.792-4-4s1.792-4,4-4s4,1.792,4,4S155.648,200,153.44,200z"/>
	<path style="fill:#3F3A34;" d="M257.44,216c11.024,0,20-8.976,20-20s-8.976-20-20-20s-20,8.976-20,20S246.416,216,257.44,216z
		 M257.44,192c2.208,0,4,1.792,4,4s-1.792,4-4,4s-4-1.792-4-4S255.232,192,257.44,192z"/>
	<path style="fill:#3F3A34;" d="M253.44,256h-16c0,17.648-14.352,32-32,32s-32-14.352-32-32h-16c0,26.472,21.528,48,48,48
		S253.44,282.472,253.44,256z"/>
	<path style="fill:#3F3A34;" d="M493.44,56V40h-64v91.24c-4.696-2.008-10.096-3.24-16-3.24c-17.944,0-32,10.544-32,24
		s14.056,24,32,24s32-10.544,32-24V96h48V80h-48V56H493.44z M413.44,160c-9.768,0-16-4.736-16-8s6.232-8,16-8s16,4.736,16,8
		S423.208,160,413.44,160z"/>
</g>
<g>
</g>
<g>
</g>
<g>
</g>
<g>
</g>
<g>
</g>
<g>
</g>
<g>
</g>
<g>
</g>
<g>
</g>
<g>
</g>
<g>
</g>
<g>
</g>
<g>
</g>
<g>
</g>
<g>
</g>
</svg>
