<svg id="Capa_1" enable-background="new 0 0 512 512" height="512" viewBox="0 0 512 512" width="512" xmlns="http://www.w3.org/2000/svg"><g><circle cx="256" cy="256" fill="#ffc265" r="248.485"/><path d="m256 477.432c-132.696 0-241.09-104.016-248.115-234.959-.24 4.479-.37 8.987-.37 13.526 0 137.235 111.251 248.485 248.485 248.485s248.485-111.249 248.485-248.484c0-4.539-.13-9.047-.37-13.526-7.025 130.943-115.419 234.958-248.115 234.958z" fill="#ffb541"/><circle cx="256" cy="256" fill="#ffe9c8" r="208.197"/><path d="m256 437.144c-110.438 0-200.776-85.993-207.747-194.67-.287 4.473-.449 8.981-.449 13.526 0 114.984 93.213 208.197 208.197 208.197s208.195-93.213 208.195-208.197c0-4.546-.162-9.053-.449-13.526-6.971 108.677-97.309 194.67-207.747 194.67z" fill="#ffdca7"/><path d="m171.714 157.914h21.396c5.534 0 10.02 4.486 10.02 10.02v70.651l123.567-78.259c10.24-6.485 23.609.872 23.609 12.993v165.363c0 12.121-13.369 19.479-23.609 12.993l-123.567-78.259v70.651c0 5.534-4.486 10.02-10.02 10.02h-21.396c-5.534 0-10.02-4.486-10.02-10.02v-176.134c0-5.533 4.486-10.019 10.02-10.019z" fill="#ff4755"/><g><g><g><path d="m193.11 336.051h-21.396c-5.534 0-10.02-4.486-10.02-10.02v18.035c0 5.534 4.486 10.02 10.02 10.02h21.396c5.534 0 10.02-4.486 10.02-10.02v-18.035c-.001 5.534-4.487 10.02-10.02 10.02z" fill="#fc2b3a"/></g><g><path d="m326.696 333.639-115.877-73.388c-3.336-2.113-7.69.284-7.69 4.232v8.932l123.567 78.259c10.24 6.486 23.609-.872 23.609-12.993v-18.035c.001 12.121-13.368 19.479-23.609 12.993z" fill="#fc2b3a"/></g></g></g><g><path d="m437.02 74.98c-48.353-48.351-112.64-74.98-181.02-74.98s-132.667 26.629-181.02 74.98c-48.351 48.353-74.98 112.64-74.98 181.02s26.629 132.667 74.98 181.02c48.353 48.351 112.64 74.98 181.02 74.98 55.989 0 109.165-17.746 153.781-51.319 3.316-2.495 3.982-7.206 1.486-10.522s-7.206-3.982-10.522-1.486c-41.991 31.597-92.043 48.298-144.745 48.298-64.366 0-124.879-25.065-170.392-70.579-45.514-45.513-70.579-106.026-70.579-170.392s25.065-124.879 70.579-170.392c45.513-45.514 106.026-70.579 170.392-70.579s124.879 25.065 170.392 70.579c45.514 45.513 70.579 106.026 70.579 170.392 0 33.383-6.695 65.697-19.9 96.047-12.757 29.321-30.969 55.472-54.13 77.728-2.992 2.875-3.087 7.633-.211 10.625 2.875 2.992 7.632 3.088 10.625.211 24.599-23.638 43.945-51.419 57.498-82.569 14.032-32.252 21.147-66.584 21.147-102.042 0-68.38-26.629-132.667-74.98-181.02z"/><path d="m114.096 103.469c-2.934-2.935-7.693-2.935-10.627 0-40.743 40.742-63.18 94.913-63.18 152.531s22.438 111.789 63.181 152.531c40.742 40.743 94.912 63.181 152.531 63.181s111.789-22.438 152.531-63.181c40.743-40.742 63.181-94.912 63.181-152.531s-22.438-111.789-63.181-152.531c-36.9-36.9-85.863-59.162-137.868-62.685-51.503-3.487-102.519 11.528-143.648 42.282-3.324 2.485-4.003 7.195-1.518 10.518 2.485 3.324 7.195 4.004 10.518 1.518 38.253-28.604 85.706-42.574 133.632-39.323 48.378 3.277 93.927 23.987 128.257 58.317 37.902 37.904 58.777 88.3 58.777 141.904s-20.875 104-58.778 141.904c-78.246 78.246-205.562 78.246-283.807 0-37.904-37.904-58.779-88.3-58.779-141.904s20.875-104 58.778-141.904c2.935-2.934 2.935-7.692 0-10.627z"/><path d="m193.11 150.399h-21.396c-9.668 0-17.534 7.866-17.534 17.534v176.134c0 9.668 7.866 17.534 17.534 17.534h21.396c9.668 0 17.534-7.866 17.534-17.534v-56.997l112.031 70.953c7.046 4.463 15.98 4.738 23.289.716 7.424-4.086 11.856-11.584 11.856-20.058v-67.652c0-4.15-3.365-7.515-7.515-7.515s-7.515 3.365-7.515 7.515v67.652c0 6.108-6.889 9.928-12.074 6.645l-123.566-78.258c-4.917-3.116-11.535.547-11.535 6.348v70.651c0 1.381-1.124 2.505-2.505 2.505h-21.396c-1.381 0-2.505-1.124-2.505-2.505v-176.134c0-1.381 1.124-2.505 2.505-2.505h21.396c1.381 0 2.505 1.124 2.505 2.505v70.651c0 5.802 6.618 9.465 11.535 6.348l123.568-78.259c5.185-3.284 12.074.537 12.074 6.645v67.652c0 4.15 3.365 7.515 7.515 7.515s7.515-3.365 7.515-7.515v-67.652c0-8.474-4.432-15.972-11.856-20.058s-16.13-3.818-23.289.716l-112.033 70.954v-56.997c0-9.668-7.866-17.534-17.534-17.534z"/></g></g></svg>